<svg xmlns="http://www.w3.org/2000/svg" viewBox="0 0 1090 250" role="img" aria-labelledby="title desc">
  <title id="title">Alves &amp; Silva</title>
  <desc id="desc">Logo horizontal azul com monograma AS e o nome Alves &amp; Silva, em contorno vetorial (variante para fundo claro).</desc>
  <defs>
    <linearGradient id="blueMark" x1="0" y1="0" x2="1" y2="1">
      <stop offset="0" stop-color="#9DC0FF"/>
      <stop offset=".5" stop-color="#2F75FF"/>
      <stop offset="1" stop-color="#1D55C9"/>
    </linearGradient>
  </defs>

  <g transform="translate(18 9) scale(.68)">
    <path
      fill="url(#blueMark)"
      fill-rule="evenodd"
      d="M150 12
         C143 12 137 17 133 26
         L25 294
         C21 305 14 313 5 319
         H91
         C81 312 76 304 80 293
         L99 245
         C111 260 126 271 143 279
         C166 291 190 294 211 289
         L213 289
         L224 315
         H295
         C285 308 278 299 273 287
         L167 27
         C163 17 157 12 150 12
         Z

         M151 58
         L191 157
         C178 148 164 143 149 143
         C133 143 119 148 107 158
         L151 58
         Z

         M105 177
         C114 160 130 151 149 151
         C171 151 188 164 198 183
         L230 263
         C214 281 189 289 165 284
         C138 279 116 263 101 239
         L89 220
         L105 177
         Z"/>
    <path
      d="M203 169
         C187 151 166 143 144 146
         C120 149 105 164 105 183
         C105 202 121 213 151 228
         C181 243 194 254 193 271
         C192 290 173 302 148 302
         C123 302 103 292 88 274"
      fill="none"
      stroke="url(#blueMark)"
      stroke-width="24"
      stroke-linecap="round"
      stroke-linejoin="round"/>
  </g>

  <line x1="244" y1="47" x2="244" y2="203" stroke="#2F75FF" stroke-width="1.5" opacity=".68"/>

  <path fill="#0B1F33" d="M338.30 167.57 328.95 139.92H303.61L293.75 167.57H303.35V170.00H283.77V167.57H289.78L322.42 79.63H332.92L365.18 167.57H371.06V170.00H329.21V167.57ZM316.79 103.57 304.76 137.10H327.93Z M373.60 74.00H404.96V167.70H412.13V170.00H374.11V167.70H381.15V76.30H373.60Z M414.28 111.38V109.07H452.55V111.38H444.49L459.85 153.87L473.67 111.38H465.10V109.07H482.38V111.38H476.74L457.80 170.00H443.21L419.53 111.38Z M518.19 107.79Q547.25 107.79 546.10 136.98H510.00V141.97Q510.00 154.51 513.20 160.91Q516.40 167.31 524.34 167.31Q539.18 167.31 543.79 151.44L546.10 151.82Q543.66 161.04 537.33 166.16Q530.99 171.28 518.32 171.28Q501.81 171.28 493.55 162.77Q485.30 154.26 485.30 139.09Q485.30 123.92 494.58 115.86Q503.86 107.79 518.19 107.79ZM510.13 134.42H523.31V128.14Q523.31 117.78 522.10 114.00Q520.88 110.22 517.23 110.22Q513.58 110.22 511.86 114.26Q510.13 118.29 510.13 128.14Z M554.65 171.28V148.37H556.18Q559.51 159.50 565.14 163.98Q570.78 168.46 579.22 168.46Q592.28 168.46 592.28 160.14Q592.28 156.56 589.08 154.77Q584.09 151.95 576.28 150.42Q567.58 148.11 561.69 144.27Q554.65 139.66 554.65 129.68Q554.65 119.70 560.79 113.74Q566.94 107.79 577.18 107.79Q583.45 107.79 590.10 110.74Q592.54 111.76 593.82 111.76Q595.10 111.76 595.99 110.86Q596.89 109.97 598.17 107.54H599.58V127.12H598.04Q591.51 110.48 577.82 110.48Q571.80 110.48 568.86 112.59Q565.91 114.70 565.91 117.90Q565.91 119.82 566.81 120.91Q567.70 122.00 568.22 122.51Q568.73 123.02 569.88 123.60Q571.03 124.18 571.80 124.50Q572.57 124.82 574.17 125.33Q575.77 125.84 576.54 125.97Q585.24 128.14 589.08 129.74Q592.92 131.34 596.38 133.65Q603.42 138.51 603.42 149.33Q603.42 160.14 597.02 165.71Q590.62 171.28 579.48 171.28Q571.54 171.28 564.12 167.57Q562.58 166.54 561.69 166.54Q558.87 166.54 556.18 171.28Z M696.94 198.93Q703.21 198.93 706.60 192.91Q709.99 186.90 709.99 178.06Q709.99 169.23 703.21 160.14Q693.48 171.28 676.46 171.28Q659.43 171.28 649.38 165.52Q639.34 159.76 639.34 147.34Q639.34 138.77 643.94 133.52Q648.55 128.27 659.43 125.84Q648.17 115.60 648.17 103.50Q648.17 91.41 656.68 85.20Q665.19 78.99 677.86 78.99Q690.54 78.99 696.87 83.60Q703.21 88.21 703.21 96.02Q703.21 109.58 682.60 116.75Q685.16 118.42 691.94 122.64Q706.15 131.86 712.04 137.49Q713.96 128.40 714.22 118.80H704.10V116.24H726.38V118.80H717.42Q717.16 130.83 714.98 140.43Q720.49 146.58 723.30 152.21Q726.12 157.84 726.12 166.42Q726.12 180.24 716.39 191.12Q706.66 202.00 694.25 202.00Q685.93 202.00 681.32 198.54Q676.71 195.09 676.71 189.71Q676.71 184.34 679.72 181.33Q682.73 178.32 687.34 178.32Q697.58 178.32 697.58 187.54Q697.58 189.46 696.81 192.14H692.33Q690.02 198.93 696.94 198.93ZM679.53 167.95Q693.10 167.95 701.03 157.46Q695.14 151.31 684.52 144.14Q666.22 132.11 661.22 127.76Q659.30 131.86 659.30 144.40Q659.30 156.94 664.30 162.45Q669.29 167.95 679.53 167.95ZM680.30 115.22Q685.67 112.40 687.02 108.43Q688.36 104.46 688.36 96.78Q688.36 81.68 677.22 81.68Q672.36 81.68 668.90 84.69Q665.45 87.70 665.45 94.22Q665.45 100.75 668.52 104.98Q671.59 109.20 680.30 115.22Z M802.87 168.59Q809.27 168.59 814.20 165.14Q819.13 161.68 819.13 154.70Q819.13 147.73 813.82 144.02Q808.50 140.30 798.71 137.55Q788.92 134.80 784.50 132.75Q780.09 130.70 776.12 127.38Q768.18 120.72 768.18 106.77Q768.18 95.38 776.31 87.18Q784.44 78.99 798.52 78.99Q805.30 78.99 812.66 80.98Q820.02 82.96 821.82 82.96Q823.61 82.96 825.02 80.40H826.42L827.32 106.26H825.27Q819.13 95.12 812.41 88.40Q805.69 81.68 797.82 81.68Q789.94 81.68 785.59 85.33Q781.24 88.98 781.24 95.06Q781.24 101.14 786.42 104.40Q791.61 107.66 799.16 109.71Q806.71 111.76 809.08 112.53Q811.45 113.30 814.97 114.64Q818.49 115.98 820.73 117.46Q822.97 118.93 825.46 121.17Q827.96 123.41 829.37 126.10Q832.82 132.24 832.82 140.69Q832.82 154.51 824.18 162.90Q815.54 171.28 801.46 171.28Q794.17 171.28 784.76 169.36Q775.35 167.44 774.33 167.44Q772.54 167.44 770.87 171.28H769.08L767.80 140.82H769.98Q775.61 151.95 784.38 160.27Q793.14 168.59 802.87 168.59Z M859.17 100.24Q852.38 100.24 849.50 96.78Q846.62 93.33 846.62 88.21Q846.62 83.09 849.76 79.76Q852.90 76.43 859.30 76.43Q865.70 76.43 869.02 79.44Q872.35 82.45 872.35 88.02Q872.35 93.58 869.15 96.91Q865.95 100.24 859.17 100.24ZM839.84 109.07H871.20V167.70H878.37V170.00H840.35V167.70H847.39V111.38H839.84Z M881.42 74.00H912.78V167.70H919.94V170.00H881.93V167.70H888.97V76.30H881.42Z M922.10 111.38V109.07H960.37V111.38H952.30L967.66 153.87L981.49 111.38H972.91V109.07H990.19V111.38H984.56L965.62 170.00H951.02L927.34 111.38Z M1023.19 139.92H1026.90V130.06Q1026.90 117.90 1025.56 113.74Q1024.22 109.58 1020.38 109.58Q1018.07 109.58 1016.22 110.80Q1014.36 112.02 1014.36 114.13Q1014.36 116.24 1015.13 118.42H1018.33Q1019.35 121.10 1019.35 124.88Q1019.35 128.66 1016.15 131.41Q1012.95 134.16 1008.09 134.16Q997.08 134.16 997.08 123.54Q997.08 107.79 1023.83 107.79Q1039.06 107.79 1044.89 112.98Q1050.71 118.16 1050.71 131.98V157.97Q1050.71 164.62 1054.42 164.62Q1058.78 164.62 1059.54 151.44L1061.46 151.57Q1060.95 162.83 1057.24 167.06Q1053.53 171.28 1045.08 171.28Q1029.72 171.28 1027.42 161.81Q1025.75 166.67 1022.42 168.98Q1019.10 171.28 1012.70 171.28Q993.75 171.28 993.75 155.79Q993.75 146.70 1000.98 143.31Q1008.22 139.92 1023.19 139.92ZM1026.90 153.87V141.97H1026.01Q1018.07 141.97 1018.07 153.62V155.66Q1018.07 162.32 1018.78 164.24Q1019.48 166.16 1021.46 166.16Q1023.45 166.16 1025.18 162.90Q1026.90 159.63 1026.90 153.87Z"/>
</svg>